# xmcd
#
# Track frame offsets: 
#        150
#        19119
#        30836
#        43357
#        57401
#        69003
#        79383
#        89592
#        101911
#        116059
#        134137
#        145173
#        160124
#        170833
#        183482
#        194499
#        205142
#        218505
#        229363
#        243584
#        256605
#        270456
#
# Disc length: 3855 seconds
#
# Revision: 0
# Processed by: cddbd v1.5.2PL0 Copyright (c) Steve Scherf et al.
# Submitted via: ExactAudioCopy v1.1
#
DISCID=460f0d16
DTITLE=Various Artist - All-Time Country Favourites - Legends Disc 3
DYEAR=2008
DGENRE=Country
TTITLE0=Kris Kristofferson  - Me and Bobby McGee
TTITLE1=Sonny James - Bright lights, big city
TTITLE2=Webb Pierce - Back street affair
TTITLE3=Lefty Frizzell - Always late ( with your kisses )
TTITLE4=Carl Smith - Loose talk
TTITLE5=Ferlin Husky - Once
TTITLE6=Hank Thompson - Rub-a-dub-dub
TTITLE7=Tex Ritter - You two-timed me one time too often
TTITLE8=Reba McEntire - Little rock
TTITLE9=Nanci Griffith  - Lone star state of mind
TTITLE10=George Jones - Tender Years
TTITLE11=Don Williams - I recall a gypsy woman
TTITLE12=Floyd Cramer - San Antonio Rose
TTITLE13=Waylon Jennings - I'm a ramblin' man
TTITLE14=Elvis Presley - Mystery train
TTITLE15=Everly Brothers - Al I have to do is dream
TTITLE16=Lynn Anderson - Keep me in mind
TTITLE17=Roger Miller - Burning bridges
TTITLE18=Merle Haggard - I'm a lonesome fugitive
TTITLE19=Alan Jackson - Don't rock the jukebox
TTITLE20=Alabama - Tennessee river
TTITLE21=Juice Newton - Angel of the morning
EXTD=
EXTT0=
EXTT1=
EXTT2=
EXTT3=
EXTT4=
EXTT5=
EXTT6=
EXTT7=
EXTT8=
EXTT9=
EXTT10=
EXTT11=
EXTT12=
EXTT13=
EXTT14=
EXTT15=
EXTT16=
EXTT17=
EXTT18=
EXTT19=
EXTT20=
EXTT21=
PLAYORDER=
